<?xml version="1.0" encoding="UTF-8" standalone="no"?><svg xmlns="http://www.w3.org/2000/svg" xmlns:xlink="http://www.w3.org/1999/xlink" contentScriptType="application/ecmascript" contentStyleType="text/css" height="319px" preserveAspectRatio="none" style="width:395px;height:319px;background:#FFFFFF;" version="1.1" viewBox="0 0 395 319" width="395px" zoomAndPan="magnify"><defs><filter height="300%" id="fjj900dy6qs5z" width="300%" x="-1" y="-1"><feGaussianBlur result="blurOut" stdDeviation="2.0"/><feColorMatrix in="blurOut" result="blurOut2" type="matrix" values="0 0 0 0 0 0 0 0 0 0 0 0 0 0 0 0 0 0 .4 0"/><feOffset dx="4.0" dy="4.0" in="blurOut2" result="blurOut3"/><feBlend in="SourceGraphic" in2="blurOut3" mode="normal"/></filter></defs><g><text fill="#888888" font-family="sans-serif" font-size="10" lengthAdjust="spacing" textLength="171" x="211" y="10.3809">Servicios asíncronos con RabbittMQ</text><!--MD5=[b24179a3055233f91256acd97360e208]
cluster Producer <&envelope-closed>--><polygon fill="#FFFFFF" filter="url(#fjj900dy6qs5z)" points="44,200.5781,54,190.5781,200,190.5781,200,302.5781,190,312.5781,44,312.5781,44,200.5781" style="stroke:#000000;stroke-width:1.5;"/><line style="stroke:#000000;stroke-width:1.5;" x1="190" x2="200" y1="200.5781" y2="190.5781"/><line style="stroke:#000000;stroke-width:1.5;" x1="44" x2="190" y1="200.5781" y2="200.5781"/><line style="stroke:#000000;stroke-width:1.5;" x1="190" x2="190" y1="200.5781" y2="312.5781"/><text fill="#000000" font-family="sans-serif" font-size="14" font-weight="bold" lengthAdjust="spacing" textLength="65" x="77.8333" y="218.1113">Producer</text><path d="M147.8333,208.3542 L147.8333,209.5208 L152.5,211.8542 L157.1667,209.5208 L157.1667,208.3542 L147.8333,208.3542 M147.8333,210.6875 L147.8333,215.3542 L157.1667,215.3542 L157.1667,210.6875 L152.5,213.0208 L147.8333,210.6875 " fill="#000000" style="stroke:;stroke-width:0.0;stroke-dasharray:;"/><!--MD5=[7fa380b7aa72c754a0b54c05100abb6d]
cluster broker RabbittMQ <&cloud>--><polygon fill="#FFFFFF" filter="url(#fjj900dy6qs5z)" points="16,28.5781,26,18.5781,378,18.5781,378,130.5781,368,140.5781,16,140.5781,16,28.5781" style="stroke:#000000;stroke-width:1.5;"/><line style="stroke:#000000;stroke-width:1.5;" x1="368" x2="378" y1="28.5781" y2="18.5781"/><line style="stroke:#000000;stroke-width:1.5;" x1="16" x2="368" y1="28.5781" y2="28.5781"/><line style="stroke:#000000;stroke-width:1.5;" x1="368" x2="368" y1="28.5781" y2="140.5781"/><text fill="#000000" font-family="sans-serif" font-size="14" font-weight="bold" lengthAdjust="spacing" textLength="125" x="122.8333" y="46.1113">broker RabbittMQ</text><path d="M258.0833,36.3542 C256.6717,36.3542 255.435,37.3575 255.1667,38.6875 C253.8833,38.6875 252.8333,39.7375 252.8333,41.0208 C252.8333,42.3042 253.8833,43.3542 255.1667,43.3542 L260.4167,43.3542 C261.385,43.3542 262.1667,42.5725 262.1667,41.6042 C262.1667,40.8458 261.6767,40.0992 261,39.8542 L261,39.2708 C261,37.6608 259.6933,36.3542 258.0833,36.3542 " fill="#000000" style="stroke:;stroke-width:0.0;stroke-dasharray:;"/><!--MD5=[165794d66c29ca850eb712b279abb0ce]
entity producer--><rect fill="#5B9BD5" filter="url(#fjj900dy6qs5z)" height="65.2188" style="stroke:#A80036;stroke-width:1.5;" width="120" x="62" y="231.5781"/><rect fill="#5B9BD5" height="10" style="stroke:#A80036;stroke-width:1.5;" width="15" x="162" y="236.5781"/><rect fill="#5B9BD5" height="2" style="stroke:#A80036;stroke-width:1.5;" width="4" x="160" y="238.5781"/><rect fill="#5B9BD5" height="2" style="stroke:#A80036;stroke-width:1.5;" width="4" x="160" y="242.5781"/><text fill="#000000" font-family="sans-serif" font-size="14" lengthAdjust="spacing" textLength="62" x="77" y="266.1113">Productor</text><text fill="#000000" font-family="sans-serif" font-size="14" lengthAdjust="spacing" textLength="80" x="77" y="283.7207">de mensajes</text><!--MD5=[fa22ef6f5aea1ebca4926a74549090ce]
entity cola--><rect fill="#EFA97A" filter="url(#fjj900dy6qs5z)" height="65.2188" style="stroke:#A80036;stroke-width:1.5;" width="153" x="208.5" y="59.5781"/><rect fill="#EFA97A" height="10" style="stroke:#A80036;stroke-width:1.5;" width="15" x="341.5" y="64.5781"/><rect fill="#EFA97A" height="2" style="stroke:#A80036;stroke-width:1.5;" width="4" x="339.5" y="66.5781"/><rect fill="#EFA97A" height="2" style="stroke:#A80036;stroke-width:1.5;" width="4" x="339.5" y="70.5781"/><text fill="#000000" font-family="sans-serif" font-size="14" lengthAdjust="spacing" textLength="113" x="223.5" y="94.1113">Cola de mensajes</text><text fill="#000000" font-family="sans-serif" font-size="14" font-style="italic" lengthAdjust="spacing" textLength="109" x="223.5" y="111.7207">(messages_high)</text><!--MD5=[fd29c16a61755d2f0d64abb16841689f]
entity Exchange--><ellipse cx="122" cy="92.0781" fill="#FEFECE" filter="url(#fjj900dy6qs5z)" rx="8" ry="8" style="stroke:#FFA500;stroke-width:1.5;"/><text fill="#000000" font-family="sans-serif" font-size="14" lengthAdjust="spacing" textLength="62" x="91" y="123.6113">Exchange</text><path d="M32.5,79.0781 L32.5,105.4297 A0,0 0 0 0 32.5,105.4297 L77.5,105.4297 A0,0 0 0 0 77.5,105.4297 L77.5,97.0781 L112.96,92.0781 L77.5,89.0781 L77.5,89.0781 L67.5,79.0781 L32.5,79.0781 A0,0 0 0 0 32.5,79.0781 " fill="#FBFB77" filter="url(#fjj900dy6qs5z)" style="stroke:#A80036;stroke-width:1.0;"/><path d="M67.5,79.0781 L67.5,89.0781 L77.5,89.0781 L67.5,79.0781 " fill="#FBFB77" style="stroke:#A80036;stroke-width:1.0;"/><text fill="#000000" font-family="sans-serif" font-size="13" lengthAdjust="spacing" textLength="24" x="38.5" y="97.5732">high</text><!--MD5=[3682edbbb6dd61adb386e5084b63ce2e]
reverse link Exchange to producer--><path d="M122,106.4481 C122,133.1781 122,193.8581 122,231.3581 " fill="none" id="Exchange-backto-producer" style="stroke:#A80036;stroke-width:2.0;"/><polygon fill="#A80036" points="122,101.2781,118,110.2781,122,106.2781,126,110.2781,122,101.2781" style="stroke:#A80036;stroke-width:2.0;"/><text fill="#000000" font-family="sans-serif" font-size="13" lengthAdjust="spacing" textLength="39" x="123" y="171.0732">AMQP</text><!--MD5=[5b60a0f01e899dde3b2918f48f212a5f]
link Exchange to cola--><path d="M131.23,92.0781 C145.49,92.0781 174.26,92.0781 203.09,92.0781 " fill="none" id="Exchange-to-cola" style="stroke:#A80036;stroke-width:2.0;"/><polygon fill="#A80036" points="208.09,92.0781,199.09,88.0781,203.09,92.0781,199.09,96.0781,208.09,92.0781" style="stroke:#A80036;stroke-width:2.0;"/><text fill="#000000" font-family="sans-serif" font-size="13" lengthAdjust="spacing" textLength="41" x="149.25" y="85.5732">binding</text><!--MD5=[eb903f9e711d2acaff0912cf26de7e09]
@startuml
skinparam componentStyle uml2
skinparam sequenceArrowThickness 2

skinparam interface {
  borderColor orange
}

header Servicios asíncronos con RabbittMQ

node "Producer <&envelope-closed>" {
  component "Productor\nde mensajes" as producer #5B9BD5
}

' node "Consumer <&envelope-open>" {
'   component "Consumidor\nde mensajes" as consumer #5B9BD5
' }
'note right
'consume los
'mensajes
'bajo demanda
'end note

node "broker RabbittMQ <&cloud>" {
  component cola #efa97a [
    Cola de mensajes
    //(messages_high)//
  ]
  interface Exchange
  note left
    high
  end note

  producer -up-> Exchange: AMQP
  Exchange -right-> cola: binding

'  cola .down.> consumer: AMQP
'  consumer -up-> cola
}

@enduml

@startuml
skinparam componentStyle uml2
skinparam sequenceArrowThickness 2

skinparam interface {
  borderColor orange
}

header Servicios asíncronos con RabbittMQ

node "Producer <&envelope-closed>" {
  component "Productor\nde mensajes" as producer #5B9BD5
}


node "broker RabbittMQ <&cloud>" {
  component cola #efa97a [
    Cola de mensajes
    //(messages_high)//
  ]
  interface Exchange
  note left
    high
  end note

  producer -up-> Exchange: AMQP
  Exchange -right-> cola: binding

}

@enduml

PlantUML version 1.2022.1(Tue Feb 01 19:19:58 CET 2022)
(GPL source distribution)
Java Runtime: OpenJDK Runtime Environment
JVM: OpenJDK 64-Bit Server VM
Default Encoding: Cp1252
Language: es
Country: ES
--></g></svg>